<?xml version="1.0" encoding="utf-8"?>
<!-- Generator: Adobe Illustrator 19.0.0, SVG Export Plug-In . SVG Version: 6.00 Build 0)  -->
<svg version="1.1" baseProfile="tiny" id="Слой_1"
	 xmlns="http://www.w3.org/2000/svg" xmlns:xlink="http://www.w3.org/1999/xlink" x="0px" y="0px" viewBox="0 0 141 97"
	 xml:space="preserve">
<g id="XMLID_2_">
	<path id="XMLID_39_" fill="#998AC1" d="M68.4031525,29.5984154l15.4771652,4.8189011l16.2425156-5.2440948
		c0.1133881-0.056694,0.2267685-0.028347,0.3401566,0l15.3637772,5.3858261l16.2141724-5.3574829
		c0.3118134-0.0850372,0.6236267,0.1133881,0.7370148,0.4535446c0,0.085041,0.0283508,0.1417313,0,0.2267723l-0.0283508,46.743309
		c0,0.2834702-0.1700745,0.5385818-0.3968506,0.6236267l-16.3275604,6.4062958c-0.1417313,0.056694-0.3118057,0.056694-0.4251938,0
		l-15.3637772-6.1511765L84.588974,82.8330688c-0.1133804,0.056694-0.2551193,0.0283432-0.3401566,0l-16.2141724-5.2157516
		c-0.2551117-0.0850372-0.4251938-0.3401566-0.4251938-0.6519699V30.2220421c0-0.3685074,0.2551193-0.6519699,0.5952759-0.6519699
		C68.2614212,29.5700722,68.3464584,29.5700722,68.4031525,29.5984154L68.4031525,29.5984154z M83.7385864,35.7495995
		l-14.9669342-4.648819v45.3543358l15.6472473,5.0456696l15.6755905-5.3574829
		c0.1133804-0.0283432,0.2267685-0.0283432,0.3401566,0.0283508l15.3921204,6.1511765l15.7606354-6.1795273l0.0283508-45.411026
		l-15.6189041,5.1590538c-0.1133881,0.056694-0.2267761,0.056694-0.3401566,0l-15.392128-5.3858261l-16.2141724,5.2440948
		C83.9370041,35.7779465,83.8236237,35.7779465,83.7385864,35.7495995L83.7385864,35.7495995z"/>
	<path id="XMLID_38_" fill="#998AC1" d="M83.2850418,35.0976295c0-0.3685036,0.2834625-0.6519699,0.5952759-0.6519699
		c0.3401566,0,0.5952759,0.2834663,0.5952759,0.6519699v47.0834694c0,0.3968506-0.2551193,0.6803131-0.5952759,0.6803131
		c-0.3118134,0-0.5952759-0.2834625-0.5952759-0.6803131V35.0976295z"/>
	<path id="XMLID_37_" fill="#998AC1" d="M115.2314911,35.2677116c0-0.3685074,0.2551193-0.6803169,0.5952759-0.6803169
		c0.3118134,0,0.5952759,0.3118095,0.5952759,0.6803169v47.7637825c0,0.3684998-0.2834625,0.6519699-0.5952759,0.6519699
		c-0.3401566,0-0.5952759-0.2834702-0.5952759-0.6519699V35.2677116z"/>
	<path id="XMLID_36_" fill="#998AC1" d="M99.6692886,29.8251915c0-0.3968506,0.2834625-0.6803169,0.5952759-0.6803169
		c0.3401566,0,0.5952759,0.2834663,0.5952759,0.6803169v46.9700813c0,0.3684998-0.2551193,0.6803131-0.5952759,0.6803131
		c-0.3118134,0-0.5952759-0.3118134-0.5952759-0.6803131V29.8251915z"/>
	
		<polygon id="XMLID_35_" fill-rule="evenodd" fill="#FFFFFF" stroke="#FFFFFF" stroke-width="1.4173229" stroke-linecap="round" stroke-linejoin="round" stroke-miterlimit="10" points="
		105.4519653,26.6220436 112.3684998,24.8078651 117.8110199,34.1905441 119.1716537,43.8566856 112.566925,45.2740097 
		113.4173203,54.1747971 109.4204712,73.8472443 100.3779526,80.4236221 86.6582642,86.7165298 84.7873993,81.6425171 
		90.9952774,79.9700775 93.1212616,77.8157425 102.1070862,68.8866119 107.9181061,53.1259766 110.2708664,53.1259766 
		111.3763733,39.3212547 110.2425156,32.3480263 	"/>
	<path id="XMLID_34_" fill="none" stroke="#FCC14D" stroke-width="1.4173229" stroke-miterlimit="10" d="M113.3889771,53.1259766
		c0,0.3401566,0.0283432,0.6803169,0.0283432,1.0488205c0,20.097641-16.3275604,36.4252014-36.4251938,36.4252014
		c-20.1259842,0-36.4251938-16.3275604-36.4251938-36.4252014c0-20.125988,16.2992096-36.4251976,36.4251938-36.4251976v7.8519669
		c-15.7889748,0-28.5732269,12.784256-28.5732269,28.5732307c0,15.7606277,12.7842522,28.5448837,28.5732269,28.5448837
		c15.7606277,0,28.5448761-12.784256,28.5448761-28.5448837c0-0.3685036,0-0.7086639-0.0283432-1.0488205H113.3889771z"/>
	<path id="XMLID_33_" fill="none" stroke="#FCC14D" stroke-width="1.4173229" stroke-miterlimit="10" d="M83.1716537,10.0393639
		c18.2551193-0.4252014,34.0440903,13.237793,35.9716492,31.6913376c0.1133881,1.1905518,0.1700821,2.3811035,0.1984253,3.5433083
		h-7.6535416c0-0.9070892-0.056694-1.8141747-0.1417313-2.7496071c-1.5307083-14.513382-14.0031509-25.256691-28.3748016-24.8314972
		V10.0393639z"/>
	
		<line id="XMLID_32_" fill="none" stroke="#FCC14D" stroke-width="1.4173229" stroke-miterlimit="10" x1="60.8629951" y1="77.7590485" x2="56.4126015" y2="84.2220459"/>
	
		<line id="XMLID_31_" fill="none" stroke="#FCC14D" stroke-width="1.4173229" stroke-miterlimit="10" x1="83.1716537" y1="17.8913307" x2="92.6110229" y2="11.0881844"/>
	
		<line id="XMLID_30_" fill="none" stroke="#FCC14D" stroke-width="1.4173229" stroke-miterlimit="10" x1="92.1007843" y1="18.8834572" x2="99.6125946" y2="13.4692879"/>
	
		<line id="XMLID_29_" fill="none" stroke="#FCC14D" stroke-width="1.4173229" stroke-miterlimit="10" x1="98.7338562" y1="21.9448738" x2="105.3102341" y2="16.9842415"/>
	
		<line id="XMLID_28_" fill="none" stroke="#FCC14D" stroke-width="1.4173229" stroke-miterlimit="10" x1="103.807869" y1="26.0551109" x2="110.2141724" y2="21.2362099"/>
	
		<line id="XMLID_27_" fill="none" stroke="#FCC14D" stroke-width="1.4173229" stroke-miterlimit="10" x1="107.6913376" y1="31.0440865" x2="114.0692902" y2="26.4519615"/>
	
		<line id="XMLID_26_" fill="none" stroke="#FCC14D" stroke-width="1.4173229" stroke-miterlimit="10" x1="110.0440903" y1="36.5716438" x2="116.648819" y2="31.8661346"/>
	
		<line id="XMLID_25_" fill="none" stroke="#FCC14D" stroke-width="1.4173229" stroke-miterlimit="10" x1="111.5747986" y1="43.0346375" x2="118.548027" y2="38.0173149"/>
	<path id="XMLID_24_" fill="none" stroke="#A81922" stroke-width="1.6440945" stroke-miterlimit="10" d="M14.3748093,70.9842453
		c0-2.3244095-1.8708668-4.1952744-4.1952763-4.1952744c-2.2960625,0-4.1952748,1.8708649-4.1952748,4.1952744
		c0,2.2960663,1.8992124,4.195282,4.1952748,4.195282C12.5039425,75.1795273,14.3748093,73.2803116,14.3748093,70.9842453
		L14.3748093,70.9842453z"/>
	<path id="XMLID_23_" fill="none" stroke="#A81922" stroke-width="1.6440945" stroke-miterlimit="10" d="M32.3748093,76.4551163
		c0-2.3244095-1.8708687-4.1952744-4.1952782-4.1952744c-2.2960625,0-4.1952744,1.8708649-4.1952744,4.1952744
		c0,2.2960587,1.8992119,4.1952744,4.1952744,4.1952744C30.5039406,80.6503906,32.3748093,78.7511749,32.3748093,76.4551163
		L32.3748093,76.4551163z"/>
	<path id="XMLID_22_" fill="none" stroke="#009648" stroke-width="1.6440945" stroke-miterlimit="10" d="M49.0425224,60.2976303
		c0-2.3244095-1.8708649-4.1952744-4.1952744-4.1952744c-2.2960625,0-4.1952782,1.8708649-4.1952782,4.1952744
		c0,2.2960625,1.8992157,4.1952744,4.1952782,4.1952744C47.1716576,64.4929047,49.0425224,62.5936928,49.0425224,60.2976303
		L49.0425224,60.2976303z"/>
	
		<line id="XMLID_21_" fill="none" stroke="#A81922" stroke-width="1.6440945" stroke-miterlimit="10" x1="14.0063047" y1="72.4015732" x2="23.9842567" y2="76.4551163"/>
	
		<line id="XMLID_20_" fill="none" stroke="#A81922" stroke-width="1.6440945" stroke-miterlimit="10" x1="31.1275635" y1="73.4503937" x2="41.4740181" y2="62.7637711"/>
	
		<line id="XMLID_19_" fill="none" stroke="#A81922" stroke-width="1.6440945" stroke-miterlimit="10" x1="56.1858292" y1="60.4110146" x2="67.8362198" y2="64.6346436"/>
	
		<line id="XMLID_18_" fill="none" stroke="#A81922" stroke-width="1.6440945" stroke-miterlimit="10" x1="76.3118134" y1="61.8566856" x2="86.2897644" y2="53.9763718"/>
	<path id="XMLID_15_" fill="#009648" d="M48.6456718,63.6708603c0-0.7653542-0.2834663-1.4456711-0.7937012-1.9275589
		c-0.5102348-0.5102386-1.1905518-0.8220482-1.9559059-0.8220482c-0.7370071,0-1.4456673,0.3118095-1.9275589,0.8220482
		c-0.5102348,0.4818878-0.8220482,1.1905479-0.8220482,1.9275589c0,0.765358,0.3118134,1.4456711,0.8220482,1.9559097
		c0.4818916,0.4818878,1.1905518,0.7936935,1.9275589,0.7936935c0.7653542,0,1.4456711-0.3118057,1.9559059-0.7936935
		C48.3622055,65.1165314,48.6456718,64.4362183,48.6456718,63.6708603L48.6456718,63.6708603z M48.6456718,60.9496002
		c0.7086601,0.6803131,1.1338577,1.6724396,1.1338577,2.7212601c0,1.0771637-0.4251976,2.040947-1.1338577,2.7496033l0,0
		c-0.7086601,0.7086639-1.6724396,1.1338654-2.7496071,1.1338654c-1.0488167,0-2.0125961-0.4252014-2.7212601-1.1338654l0,0
		c-0.7086601-0.7086563-1.1338577-1.6724396-1.1338577-2.7496033c0-1.0488205,0.4251976-2.040947,1.1338577-2.7212601
		c0.6803169-0.7086639,1.6724434-1.1338577,2.7212601-1.1338577C46.9732323,59.8157425,47.9370117,60.2409363,48.6456718,60.9496002
		L48.6456718,60.9496002z"/>
	<path id="XMLID_14_" fill-rule="evenodd" fill="#FFFFFF" stroke="#009648" stroke-width="1.7007874" stroke-miterlimit="10" d="
		M43.6283493,68.121254c6.9448814,0,12.5858269-5.6409454,12.5858269-12.5858269s-5.6409454-12.5858269-12.5858269-12.5858269
		s-12.5858269,5.6409454-12.5858269,12.5858269S36.6834679,68.121254,43.6283493,68.121254L43.6283493,68.121254z"/>
	<path id="XMLID_13_" fill-rule="evenodd" fill="#FFFFFF" d="M40.9921303,58.0299149h0.2834625
		c0.5102386,0.6803131,1.303936,1.1338577,2.2110252,1.1338577c0.8787384,0,1.6724396-0.4535446,2.1826744-1.1338577h0.2834663
		c2.2393684,0,4.0535431,1.9275589,4.0535431,4.2519684l0,0c0,0.3401566-0.028347,0.6803131-0.1133881,0.9921265H37.0519714
		c-0.056694-0.3118134-0.1133842-0.6519699-0.1133842-0.9921265l0,0
		C36.9385872,59.9574738,38.781105,58.0299149,40.9921303,58.0299149L40.9921303,58.0299149z"/>
	<path id="XMLID_10_" fill="#009648" d="M43.5716553,47.1165276c1.2472458,0,2.3527565,0.4535446,3.1748047,1.2472458
		c0.7937012,0.7653542,1.303936,1.8425179,1.303936,3.0047226c0,0.1700783,0,0.3685036-0.028347,0.5385818l-0.028347,0.2267723
		c0.056694,0.1133881,0.1133881,0.2267723,0.1417351,0.3401566c0.0566902,0.2267723,0.1133842,0.4535446,0.1133842,0.7086639
		c0,0.4535408-0.1417313,0.8787384-0.3401566,1.1905518c-0.1417313,0.2267685-0.3118134,0.3968506-0.5102386,0.5102348
		c-0.1700783,0.8503952-0.5952721,1.6157494-1.1905479,2.1826782c-0.6803169,0.6803131-1.6157494,1.0771637-2.6362228,1.0771637
		c-1.0204697,0-1.9559059-0.3968506-2.664566-1.0771637l-0.028347-0.056694
		c-0.5385818-0.5385818-0.9354324-1.2472458-1.1055107-2.0409431c-0.2834663-0.1133881-0.5385818-0.3118134-0.7086601-0.5952759
		c-0.1984253-0.3118134-0.3401604-0.737011-0.3401604-1.1905518c0-0.3118134,0.056694-0.6236229,0.1700821-0.8787422
		c0.0566902-0.1417313,0.1417313-0.2834625,0.2267685-0.3968506v-0.0850372
		c-0.028347-0.1417313-0.028347-0.3118134-0.028347-0.4535446c0-1.1622047,0.5102386-2.2393684,1.3322868-3.0047226
		C41.2188988,47.5700722,42.3527603,47.1165276,43.5716553,47.1165276L43.5716553,47.1165276z M45.7826805,49.2992058
		c-0.5669289-0.5385818-1.332283-0.8787422-2.2110252-0.8787422c-0.8787384,0-1.6440926,0.3401604-2.2110214,0.8787422
		c-0.5669289,0.5102348-0.9070892,1.275589-0.9070892,2.0692902c0,0.1133881,0,0.2267723,0,0.3118134
		c0.028347,0.1133842,0.028347,0.1984253,0.056694,0.3118095c0.056694,0.2551193-0.056694,0.5102348-0.2551193,0.6519699
		c-0.0283432,0.0283432-0.0850372,0.0850372-0.1133842,0.1700783c-0.028347,0.0850372-0.056694,0.2267723-0.056694,0.3685036
		c0,0.2267723,0.028347,0.3968506,0.1133881,0.5102348c0,0,0,0-0.028347,0h0.1133842
		c0.3968506-0.028347,0.7086639,0.2267723,0.7370071,0.5952759c0.056694,0.7086601,0.3685074,1.36063,0.8220482,1.8141747
		l0.028347,0.028347c0.4535446,0.4535408,1.0488205,0.7086601,1.7007866,0.7086601
		c0.6519699,0,1.2472458-0.2551193,1.7007866-0.7086601c0.4535446-0.4251976,0.7653542-1.0488205,0.8503952-1.7574806
		c0-0.3685036,0.3118095-0.6519699,0.6803169-0.6519699l0,0c0.0283432,0-0.028347-0.028347-0.028347-0.056694
		c0.0850372-0.0850372,0.1133842-0.2834625,0.1133842-0.4818878c0-0.1133881,0-0.2267723-0.028347-0.3118134
		C46.8314972,52.78582,46.803154,52.729126,46.74646,52.700779c-0.1417313-0.1700783-0.1984253-0.3968506-0.1417313-0.5952759
		c0.0283432-0.1417313,0.0566902-0.2551155,0.0850372-0.3685036c0-0.1133842,0-0.2267723,0-0.3685036
		C46.6897659,50.5747948,46.3496094,49.8094406,45.7826805,49.2992058L45.7826805,49.2992058z"/>
	<path id="XMLID_7_" fill="#009648" d="M39.0078773,58.4267654h0.3685036c0.2551193,0,0.4818916,0.1133842,0.6236229,0.3118095
		c0.2551155,0.2834663,0.5952759,0.5385818,0.9637794,0.7086601c0.3685036,0.1417351,0.7653542,0.2551193,1.218895,0.2551193
		c0.4251976,0,3.2031517-0.1133842,3.5716553-0.2551193c0.3685036-0.1984253,0.7086601-0.4535408,0.9637794-0.7370071
		c0.1700783-0.1984253,0.3685036-0.2834625,0.6236229-0.2834625h0.3401566c1.6440926,0,3.1464577,0.6236229,4.2236214,1.6157455
		l0.028347,0.028347c1.0488167,0.9921265,1.7007866,2.3244095,1.7007866,3.8267708c0,0.1984253,0,0.4252014-0.028347,0.6236267
		c-0.028347,0.2267685-0.5669289,0-0.6236229,0.1984253c-0.0850372,0.3401566-0.5385818,0.7653503-0.8787384,0.7653503
		L48.10709,67.7244034l-6.1228371,0.3968506l-7.3700752-2.8913345c-0.3968506,0-1.0204735-1.4173279-1.0771637-1.7574844
		c-0.056694-0.1984253-0.3968506-0.1133881-0.4251976-0.2834663c-0.028347-0.2267723,0.3968506,1.0204735-0.028347,0.7086601
		c0-1.5023613,0.6519699-2.8629913,1.7291336-3.8551178l0.028347-0.0283432
		C35.9181137,59.0220413,37.392128,58.4267654,39.0078773,58.4267654L39.0078773,58.4267654z M39.0362244,59.8157425h-0.028347
		c-1.2188988,0-2.3244095,0.4535408-3.1181107,1.1905479c-0.7937012,0.737011-1.303936,1.7574806-1.303936,2.8913383
		c0,0.1417389,0,1.2189026,0.028347,1.3322906l7.3700752,2.8913345l6.037796-1.1338577l4.0818901-2.6929169
		c0-0.1133804,0-0.2551117,0-0.3968506c0-1.1055107-0.4818878-2.1259842-1.2472458-2.8629913l-0.0283432-0.028347
		c-0.8220482-0.7370071-1.9275589-1.1905479-3.1464577-1.1905479l0,0c-0.3685036,0.3685036-0.7937012,0.6519661-1.2472458,0.8787384
		c-0.5952721,0.2551193-3.5716515,0.3968506-4.2519684,0.3968506c-0.6803131,0-1.332283-0.1417313-1.8992119-0.3968506
		C39.8015785,60.4677086,39.3763809,60.1842461,39.0362244,59.8157425L39.0362244,59.8157425z"/>
	<path id="XMLID_6_" fill-rule="evenodd" fill="#FFFFFF" d="M72.2582703,68.0929108
		c1.8992081,0,3.4299164-1.5590591,3.4299164-3.4582672c0-1.9275627-1.5307083-3.458271-3.4299164-3.458271
		c-1.9275589,0-3.4582672,1.5307083-3.4582672,3.458271C68.8000031,66.5338516,70.3307114,68.0929108,72.2582703,68.0929108
		L72.2582703,68.0929108z"/>
	<path id="XMLID_5_" fill="none" stroke="#A81922" stroke-width="1.6440945" stroke-miterlimit="10" d="M76.2267685,64.6346436
		c0-2.3244133-1.8708649-4.195282-4.1952744-4.195282c-2.2960587,0-4.1952744,1.8708687-4.1952744,4.195282
		c0,2.2960587,1.8992157,4.1952744,4.1952744,4.1952744C74.3559036,68.8299179,76.2267685,66.9307022,76.2267685,64.6346436
		L76.2267685,64.6346436z"/>
	<path id="XMLID_4_" fill-rule="evenodd" fill="#FFFFFF" d="M89.8047256,54.7700729
		c2.0692902,0,3.7700806-1.7007904,3.7700806-3.7700806s-1.7007904-3.7700768-3.7700806-3.7700768
		s-3.7700806,1.7007866-3.7700806,3.7700768S87.7354355,54.7700729,89.8047256,54.7700729L89.8047256,54.7700729z"/>
	<path id="XMLID_3_" fill="none" stroke="#A81922" stroke-width="1.6440945" stroke-miterlimit="10" d="M94,50.9999924
		c0-2.3244095-1.8708649-4.1952744-4.1952744-4.1952744c-2.2960663,0-4.1952744,1.8708649-4.1952744,4.1952744
		s1.8992081,4.1952744,4.1952744,4.1952744C92.1291351,55.1952667,94,53.3244019,94,50.9999924L94,50.9999924z"/>
</g>
</svg>
