<?xml version="1.0" encoding="utf-8"?>
<!-- Generator: Adobe Illustrator 19.0.0, SVG Export Plug-In . SVG Version: 6.00 Build 0)  -->
<svg version="1.1" baseProfile="tiny" id="Слой_1"
	 xmlns="http://www.w3.org/2000/svg" xmlns:xlink="http://www.w3.org/1999/xlink" x="0px" y="0px"
	 viewBox="-248 374.3467102 97.5833359 93.5433044" xml:space="preserve">
<g>
	
		<rect x="-236.9757385" y="411.4696655" fill="none" stroke="#009648" stroke-width="2.1259842" stroke-linecap="round" stroke-linejoin="round" stroke-miterlimit="10" width="16.3842506" height="46.5732307"/>
	
		<rect x="-220.4214172" y="420.0586243" fill="none" stroke="#009648" stroke-width="2.1259842" stroke-linecap="round" stroke-linejoin="round" stroke-miterlimit="10" width="14.8535423" height="37.9842567"/>
	
		<rect x="-205.5678711" y="403.8161316" fill="none" stroke="#009648" stroke-width="2.1259842" stroke-linecap="round" stroke-linejoin="round" stroke-miterlimit="10" width="14.9385834" height="54.2267761"/>
	
		<rect x="-190.6009521" y="411.2995911" fill="none" stroke="#009648" stroke-width="2.1259842" stroke-linecap="round" stroke-linejoin="round" stroke-miterlimit="10" width="14.9385834" height="46.743309"/>
	
		<rect x="-175.9174805" y="384.1720276" fill="none" stroke="#009648" stroke-width="2.1259842" stroke-linecap="round" stroke-linejoin="round" stroke-miterlimit="10" width="14.9385834" height="73.8708725"/>
	
		<line fill="none" stroke="#009648" stroke-width="2.1259842" stroke-linecap="round" stroke-linejoin="round" stroke-miterlimit="10" x1="-242.276535" y1="458.4397583" x2="-155.4796906" y2="458.4397583"/>
	
		<path fill="none" stroke="#FEFEFE" stroke-width="2.1259842" stroke-linecap="round" stroke-linejoin="round" stroke-miterlimit="10" d="
		M-243.8922729,448.7452698c-0.5385895,0-0.9921265-0.4535522-0.9921265-0.9921265
		c0-0.5669556,0.453537-1.0204773,0.9921265-1.0204773h11.7354279l7.2283478-8.7023621
		c0.1984253-0.255127,0.4818878-0.3685303,0.7653503-0.3685303h7.9370117c0.3118134,0,0.566925,0.1417542,0.7653503,0.3401794
		l6.4629974,6.4062805l9.2125854,0.0567017l15.448822-14.2582703c0.2267761-0.1984253,0.4818878-0.2834473,0.7653503-0.255127
		l11.4519653,0.0283508l4.9322815-8.4188843c0.1984253-0.3118286,0.5385895-0.5102539,0.8787537-0.5102539h12.0472412
		c0.566925,0,1.020462,0.4535522,1.020462,1.0204773s-0.453537,1.0204773-1.020462,1.0204773h-11.4803162l-4.9039459,8.4189148l0,0
		c-0.1984253,0.2834473-0.5102234,0.4818726-0.8787384,0.4818726l-11.7354279-0.0283508l-15.448822,14.2582703
		c-0.1700745,0.1700745-0.4251862,0.2834778-0.6803131,0.255127l-9.977951-0.0567017
		c-0.2834625,0-0.5385742-0.085022-0.7653503-0.2834473l-6.5196838-6.4630127h-7.0299225l-7.1999969,8.6740417
		c-0.1700745,0.2550964-0.4818878,0.3968506-0.7937012,0.3968506H-243.8922729z"/>
	<path fill="#FCC14D" d="M-243.8922729,448.7452698c-0.5385895,0-0.9921265-0.4535522-0.9921265-0.9921265
		c0-0.5669556,0.453537-1.0204773,0.9921265-1.0204773h11.7354279l7.2283478-8.7023621
		c0.1984253-0.255127,0.4818878-0.3685303,0.7653503-0.3685303h7.9370117c0.3118134,0,0.566925,0.1417542,0.7653503,0.3401794
		l6.4629974,6.4062805l9.2125854,0.0567017l15.448822-14.2582703c0.2267761-0.1984253,0.4818878-0.2834473,0.7653503-0.255127
		l11.4519653,0.0283508l4.9322815-8.4188843c0.1984253-0.3118286,0.5385895-0.5102539,0.8787537-0.5102539h12.0472412
		c0.566925,0,1.020462,0.4535522,1.020462,1.0204773s-0.453537,1.0204773-1.020462,1.0204773h-11.4803162l-4.9039459,8.4189148l0,0
		c-0.1984253,0.2834473-0.5102234,0.4818726-0.8787384,0.4818726l-11.7354279-0.0283508l-15.448822,14.2582703
		c-0.1700745,0.1700745-0.4251862,0.2834778-0.6803131,0.255127l-9.977951-0.0567017
		c-0.2834625,0-0.5385742-0.085022-0.7653503-0.2834473l-6.5196838-6.4630127h-7.0299225l-7.1999969,8.6740417
		c-0.1700745,0.2550964-0.4818878,0.3968506-0.7937012,0.3968506H-243.8922729z"/>
</g>
</svg>
