<?xml version="1.0" encoding="utf-8"?>
<!-- Generator: Adobe Illustrator 19.0.0, SVG Export Plug-In . SVG Version: 6.00 Build 0)  -->
<svg version="1.1" baseProfile="tiny" id="Слой_1"
	 xmlns="http://www.w3.org/2000/svg" xmlns:xlink="http://www.w3.org/1999/xlink" x="0px" y="0px"
	 viewBox="-248 374.3467102 97.5833359 93.5433044" xml:space="preserve">
<g>
	<path fill="#009648" d="M-168.8385162,432.7901917l7.9817047,1.2411194v4.5614624h1.524231v-6.60849l-7.2605591-5.5769043
		h-2.2781525v-8.3331299l4.1629486-4.0940552l-0.6228027-7.6884155h5.3757629l0.2294617,0.6447449l-0.2130737-5.0772705h1.6881256
		l-0.0491638-0.0322266h-2.0814819l-0.3113861-2.5144348l-4.8513184,2.4499512l1.0980988-6.044342l1.7536926-2.5466919
		c-0.0491791-0.1289368-0.1147308-0.2578735-0.1311188-0.2417603c-0.7211304,0.4029541-3.4909821,3.0785828-4.2121124,3.7877808
		l-2.2125854,9.3002625l-4.1957245-1.9664307v2.6756287h-4.0154419v2.6917419h-1.7209015v-4.3841858h3.999054v-3.658844
		l4.7365723,2.1921082l1.8356323-7.7045288l0.1802826-0.1773071c0-0.0161133,3.7040405-3.6427307,4.7693634-4.2391052
		c1.852005-1.0154419,2.7534332,1.5312195,2.7534332,1.5312195l0.1475067,0.4190979l-2.0486908,2.9657593l-0.4261322,2.3210144
		l3.9334869-1.9986572l0.4425354,3.433197h1.3439331l3.0156708,3.4493103h-3.6384735l0.1311188,3.2881165l2.9992828,4.4486389
		l2.5403748,8.510437l-5.1463165-2.8529358l-1.6717224-3.6910706l-1.9011993-5.2868042h-2.2617493l0.5244598,6.6407471
		l-4.2285004,4.1585083v5.9315186h1.1472778l8.3914337,6.4472961v9.1390686h-4.9660187v-4.8193665l-6.5230408-1.0154419
		L-168.8385162,432.7901917z M-159.3817444,407.8874817l1.7209015,4.8193665l1.376709,3.0463562l0.9669952,0.5318909
		l-1.2783813-4.2552185L-159.3817444,407.8874817z"/>
	<path fill="#009648" d="M-196.7335205,411.4496155l-4.1957092,1.3378296l-4.9168701,5.3029175
		c-0.1966705,0.2095337-0.4261322,0.3062439-0.6555786,0.3384705l0,0c-0.2130585,0.0322266-0.4097443,0-0.5900269-0.0805969
		c-0.1802826-0.0967102-0.3441772-0.225647-0.4589081-0.4029541c-0.1311188-0.1934204-0.1966705-0.4351807-0.1638947-0.709198
		l0.540863-4.0456848l-1.1636658,2.7884521l-4.0482178,2.8851929h-3.1140137l-3.835144-3.5460205l-4.457962-0.2095642
		l-0.3769531-5.6252441h-1.2783966l-3.7532043,4.0940247l-6.4246979,1.2894592l-1.3275452,1.8858337l0.409729,2.6111755
		l-1.7209015,1.3055725l1.5570068,9.1712952l-5.4904938,2.1759644l2.474823,4.8838196l0.6391907,2.4338684l1.5570068-4.4002991
		h1.2783813v-3.4493103l8.6045074-0.2095337l3.6057129,2.7723389v-1.4828796l11.3415527,0.4190674l2.0814819,1.9503174h2.2125854
		l0.1802826,0.6124878c0,0,0.7047577,2.3371582,2.8681641,4.6420593c1.4258881,1.53125,2.7534485,2.3371582,3.4745789,2.7078857
		l1.5570221-2.0309143l6.2444-0.1773071v-7.4305115l5.4577179,6.0927124h7.1130676l1.3439484-2.466095l3.4581909,0.1773071
		v-2.6756287h1.7372894v4.4486389l-4.1793365-0.1934204l-1.3275452,2.4016113h-8.9159241l-2.9501038-3.2881165v4.5775757
		l-7.0966797,0.2095337l-1.8684082,2.4338684l-0.6064148-0.225647c0,0-2.2781372-0.822052-4.7201843-3.4170837
		c-1.7209015-1.8374939-2.6387177-3.7555542-3.0156708-4.6904297h-1.6553497l-2.1142426-1.9825439l-8.8831329-0.3384705v3.20755
		l-5.916626-4.5453796l-6.2935944,0.1611938v3.4976501h-1.7864532l-1.8520203,5.2384644
		c-0.0819397,0.2578735-0.2622375,0.4512939-0.475296,0.5802307h-0.0163879
		c-0.1802826,0.0967102-0.3769531,0.1450806-0.5736389,0.1289673c-0.1966705,0-0.3933411-0.0644836-0.5572357-0.1773071
		c-0.1966858-0.1289368-0.3605804-0.338501-0.4425201-0.6124878l-1.1308746-4.3035889l-3.2451324-6.3828125l5.9494019-2.3371582
		l-1.4914551-8.8328247l1.7209015-1.3216858l-0.3605652-2.2726746l2.1142578-2.9979858l6.5558167-1.3217163l3.8843231-4.2391052
		h3.6712494l0.3769684,5.6897583l3.5565186,0.1773071l3.8023834,3.5137634h1.8520203l3.2123413-2.2887878l1.4586792-3.4976501
		h3.0812225l-0.5244598,4.0617981l3.835144-4.142395l4.6382446-1.4667664L-196.7335205,411.4496155z"/>
	<rect x="-199.814743" y="400.7954712" fill-rule="evenodd" fill="#009648" width="2.3437045" height="2.3049111"/>
	<rect x="-197.4710388" y="403.1003723" fill-rule="evenodd" fill="#009648" width="2.3437045" height="2.3049111"/>
	<rect x="-215.7453766" y="410.9016113" fill-rule="evenodd" fill="#009648" width="2.3437045" height="2.3049111"/>
	<rect x="-213.4016724" y="408.5967102" fill-rule="evenodd" fill="#009648" width="2.3437068" height="2.304909"/>
	<rect x="-211.0579681" y="406.2917786" fill-rule="evenodd" fill="#009648" width="4.1957221" height="2.3049111"/>
	<rect x="-209.8287506" y="398.4905396" fill-rule="evenodd" fill="#009648" width="4.1793299" height="2.3049111"/>
	<rect x="-160.594574" y="424.5054321" fill-rule="evenodd" fill="#009648" width="2.3437045" height="4.1262736"/>
	<rect x="-185.1624908" y="403.1003723" fill-rule="evenodd" fill="#009648" width="4.1957264" height="2.3049111"/>
	<rect x="-171.6411285" y="392.8491516" fill-rule="evenodd" fill="#009648" width="2.3437045" height="2.3049111"/>
	<rect x="-154.5796051" y="408.5967102" fill-rule="evenodd" fill="#009648" width="2.3437045" height="2.304909"/>
	<rect x="-153.4159546" y="419.1702881" fill-rule="evenodd" fill="#009648" width="2.3600967" height="2.3049111"/>
	<rect x="-152.760376" y="423.3610229" fill-rule="evenodd" fill="#009648" width="2.3437045" height="2.3049111"/>
	<rect x="-155.0713043" y="425.4241638" fill-rule="evenodd" fill="#009648" width="2.3437045" height="2.3049111"/>
	<rect x="-162.9382782" y="423.1192627" fill-rule="evenodd" fill="#009648" width="2.3437045" height="2.3049111"/>
	<rect x="-158.2508698" y="428.6316833" fill-rule="evenodd" fill="#009648" width="2.3437045" height="2.3049111"/>
	<path fill="#009648" d="M-244.2631836,428.3738098l-1.999527-0.5641479v1.9825439l1.999527,0.6124878V428.3738098z
		 M-246.9019012,425.8754578l4.3760071,1.2088928v5.6413879L-248,431.0333252v-5.4641113L-246.9019012,425.8754578z"/>
	<path fill="#009648" d="M-197.8643951,411.6430359c-0.3933411,0.0483704-0.7375183-0.2417603-0.7866974-0.6286011
		c-0.0491638-0.3868408,0.2458496-0.7414246,0.6391907-0.7736816l19.6182861-2.127594
		c0.3933563-0.0322571,0.7539215,0.2417603,0.7866974,0.6286011c0.0491638,0.3868408-0.2458344,0.7414551-0.6391907,0.7897949
		L-197.8643951,411.6430359z"/>
	<path fill="#009648" d="M-169.3465881,433.0319824c0.3441772-0.2095337,0.7866974-0.0967102,0.9997711,0.225647
		c0.1966705,0.338501,0.0983276,0.7736816-0.2458496,0.9832153l-2.9337311,1.756897
		c-0.1475067,0.0805969-0.3114014,0.1128235-0.4589081,0.0967102l-3.9334869-0.4513245
		c-0.3933563-0.0322266-0.6719666-0.3868103-0.6391907-0.7736511c0.0491638-0.3868408,0.409729-0.6769714,0.8030853-0.6286316
		l3.6876526,0.4190674L-169.3465881,433.0319824z"/>
</g>
<g>
	<path fill="none" stroke="#FCC14D" stroke-width="1.6440945" stroke-miterlimit="10" d="M89.7360611,767.5830688
		c0-2.5795288-2.0976334-4.6771851-4.6771622-4.6771851s-4.705513,2.0976563-4.705513,4.6771851
		c0,2.6078491,2.1259842,4.7055054,4.705513,4.7055054S89.7360611,770.190918,89.7360611,767.5830688L89.7360611,767.5830688z"/>
	<path fill="none" stroke="#FCC14D" stroke-width="1.6440945" stroke-miterlimit="10" d="M73.5218887,791.8475952
		c0-2.5795288-2.097641-4.677124-4.6771622-4.677124c-2.5795288,0-4.6771698,2.0975952-4.6771698,4.677124
		s2.097641,4.6771851,4.6771698,4.6771851C71.4242477,796.5247803,73.5218887,794.427124,73.5218887,791.8475952
		L73.5218887,791.8475952z"/>
	<path fill="none" stroke="#FCC14D" stroke-width="1.6440945" stroke-miterlimit="10" d="M57.5911789,771.3531494
		c0-2.5795288-2.1259842-4.6771851-4.705513-4.6771851c-2.579525,0-4.6771622,2.0976563-4.6771622,4.6771851
		s2.0976372,4.7055054,4.6771622,4.7055054C55.4651947,776.0586548,57.5911789,773.9326782,57.5911789,771.3531494
		L57.5911789,771.3531494z"/>
	<path fill="none" stroke="#FCC14D" stroke-width="1.6440945" stroke-miterlimit="10" d="M35.7077179,823.0003662
		c0-2.5795288-2.0976372-4.7055054-4.6771679-4.7055054c-2.5795269,0-4.6771641,2.1259766-4.6771641,4.7055054
		s2.0976372,4.6771851,4.6771641,4.6771851C33.6100807,827.6775513,35.7077179,825.579895,35.7077179,823.0003662
		L35.7077179,823.0003662z"/>
	<path fill="none" stroke="#FCC14D" stroke-width="1.6440945" stroke-miterlimit="10" d="M18.9266148,809.6491699
		c0-2.5795288-2.0976372-4.7055054-4.7055111-4.7055054c-2.5795269,0-4.677165,2.1259766-4.677165,4.7055054
		s2.0976381,4.6771851,4.677165,4.6771851C16.8289776,814.326355,18.9266148,812.2286987,18.9266148,809.6491699
		L18.9266148,809.6491699z"/>
	
		<line fill="none" stroke="#FCC14D" stroke-width="1.6440945" stroke-miterlimit="10" x1="26.4951191" y1="821.2995605" x2="17.7360649" y2="813.3342285"/>
	
		<line fill="none" stroke="#FCC14D" stroke-width="1.6440945" stroke-miterlimit="10" x1="65.8116531" y1="787.7657471" x2="56.2022018" y2="775.1515503"/>
	
		<line fill="none" stroke="#FCC14D" stroke-width="1.6440945" stroke-miterlimit="10" x1="71.9911804" y1="787.7940674" x2="82.5077133" y2="771.5231934"/>
	
		<line fill="none" stroke="#FCC14D" stroke-width="1.6440945" stroke-miterlimit="10" x1="33.2982674" y1="818.8901367" x2="50.7596817" y2="775.5484009"/>
</g>
<g>
	<path fill="none" stroke="#FCC14D" stroke-width="1.6440945" stroke-miterlimit="10" d="M-176.5168152,417.151062
		c0-1.4451904-1.1752014-2.6203918-2.6203766-2.6203918c-1.4451904,0-2.6362762,1.1752014-2.6362762,2.6203918
		c0,1.4610596,1.1910858,2.636261,2.6362762,2.636261C-177.6920166,419.787323-176.5168152,418.6121216-176.5168152,417.151062
		L-176.5168152,417.151062z"/>
	<path fill="none" stroke="#FCC14D" stroke-width="1.6440945" stroke-miterlimit="10" d="M-185.6008301,430.7453308
		c0-1.4451904-1.1752167-2.6203918-2.6203918-2.6203918c-1.4451904,0-2.6203918,1.1752014-2.6203918,2.6203918
		s1.1752014,2.6203918,2.6203918,2.6203918C-186.7760468,433.3657227-185.6008301,432.1905212-185.6008301,430.7453308
		L-185.6008301,430.7453308z"/>
	<path fill="none" stroke="#FCC14D" stroke-width="1.6440945" stroke-miterlimit="10" d="M-194.5260468,419.2632446
		c0-1.4451904-1.1910858-2.6203918-2.6362762-2.6203918c-1.4451752,0-2.6203918,1.1752014-2.6203918,2.6203918
		s1.1752167,2.636261,2.6203918,2.636261C-195.7171326,421.8995056-194.5260468,420.7084351-194.5260468,419.2632446
		L-194.5260468,419.2632446z"/>
	<path fill="none" stroke="#FCC14D" stroke-width="1.6440945" stroke-miterlimit="10" d="M-206.7863007,448.1987305
		c0-1.4451904-1.1752014-2.6362915-2.6203918-2.6362915s-2.6203918,1.1911011-2.6203918,2.6362915
		s1.1752014,2.6203918,2.6203918,2.6203918S-206.7863007,449.6439209-206.7863007,448.1987305L-206.7863007,448.1987305z"/>
	<path fill="none" stroke="#FCC14D" stroke-width="1.6440945" stroke-miterlimit="10" d="M-216.1879578,440.718689
		c0-1.4451904-1.1752014-2.636261-2.636261-2.636261c-1.4451904,0-2.6203918,1.1910706-2.6203918,2.636261
		s1.1752014,2.6203918,2.6203918,2.6203918C-217.3631592,443.3390808-216.1879578,442.1638794-216.1879578,440.718689
		L-216.1879578,440.718689z"/>
	
		<line fill="none" stroke="#FCC14D" stroke-width="1.6440945" stroke-miterlimit="10" x1="-211.9476776" y1="447.2458496" x2="-216.8549652" y2="442.7832336"/>
	
		<line fill="none" stroke="#FCC14D" stroke-width="1.6440945" stroke-miterlimit="10" x1="-189.920517" y1="428.4584351" x2="-195.3042297" y2="421.3913269"/>
	
		<line fill="none" stroke="#FCC14D" stroke-width="1.6440945" stroke-miterlimit="10" x1="-186.4584198" y1="428.4743042" x2="-180.5665131" y2="419.3585205"/>
	
		<line fill="none" stroke="#FCC14D" stroke-width="1.6440945" stroke-miterlimit="10" x1="-208.1362" y1="445.8959656" x2="-198.3534088" y2="421.6136475"/>
</g>
</svg>
