<?xml version="1.0" encoding="utf-8"?>
<!-- Generator: Adobe Illustrator 19.0.0, SVG Export Plug-In . SVG Version: 6.00 Build 0)  -->
<svg version="1.1" baseProfile="tiny" id="Слой_1"
	 xmlns="http://www.w3.org/2000/svg" xmlns:xlink="http://www.w3.org/1999/xlink" x="0px" y="0px"
	 viewBox="-248 374.3467102 97.5833359 93.5433044" xml:space="preserve">
<g>
	<path fill="none" stroke="#FCC14D" stroke-width="1.6440945" stroke-miterlimit="10" d="M89.7360611,767.5830688
		c0-2.5795288-2.0976334-4.6771851-4.6771622-4.6771851s-4.705513,2.0976563-4.705513,4.6771851
		c0,2.6078491,2.1259842,4.7055054,4.705513,4.7055054S89.7360611,770.190918,89.7360611,767.5830688L89.7360611,767.5830688z"/>
	<path fill="none" stroke="#FCC14D" stroke-width="1.6440945" stroke-miterlimit="10" d="M73.5218887,791.8475952
		c0-2.5795288-2.097641-4.677124-4.6771622-4.677124c-2.5795288,0-4.6771698,2.0975952-4.6771698,4.677124
		s2.097641,4.6771851,4.6771698,4.6771851C71.4242477,796.5247803,73.5218887,794.427124,73.5218887,791.8475952
		L73.5218887,791.8475952z"/>
	<path fill="none" stroke="#FCC14D" stroke-width="1.6440945" stroke-miterlimit="10" d="M57.5911789,771.3531494
		c0-2.5795288-2.1259842-4.6771851-4.705513-4.6771851c-2.579525,0-4.6771622,2.0976563-4.6771622,4.6771851
		s2.0976372,4.7055054,4.6771622,4.7055054C55.4651947,776.0586548,57.5911789,773.9326782,57.5911789,771.3531494
		L57.5911789,771.3531494z"/>
	<path fill="none" stroke="#FCC14D" stroke-width="1.6440945" stroke-miterlimit="10" d="M35.7077179,823.0003662
		c0-2.5795288-2.0976372-4.7055054-4.6771679-4.7055054c-2.5795269,0-4.6771641,2.1259766-4.6771641,4.7055054
		s2.0976372,4.6771851,4.6771641,4.6771851C33.6100807,827.6775513,35.7077179,825.579895,35.7077179,823.0003662
		L35.7077179,823.0003662z"/>
	<path fill="none" stroke="#FCC14D" stroke-width="1.6440945" stroke-miterlimit="10" d="M18.9266148,809.6491699
		c0-2.5795288-2.0976372-4.7055054-4.7055111-4.7055054c-2.5795269,0-4.677165,2.1259766-4.677165,4.7055054
		s2.0976381,4.6771851,4.677165,4.6771851C16.8289776,814.326355,18.9266148,812.2286987,18.9266148,809.6491699
		L18.9266148,809.6491699z"/>
	
		<line fill="none" stroke="#FCC14D" stroke-width="1.6440945" stroke-miterlimit="10" x1="26.4951191" y1="821.2995605" x2="17.7360649" y2="813.3342285"/>
	
		<line fill="none" stroke="#FCC14D" stroke-width="1.6440945" stroke-miterlimit="10" x1="65.8116531" y1="787.7657471" x2="56.2022018" y2="775.1515503"/>
	
		<line fill="none" stroke="#FCC14D" stroke-width="1.6440945" stroke-miterlimit="10" x1="71.9911804" y1="787.7940674" x2="82.5077133" y2="771.5231934"/>
	
		<line fill="none" stroke="#FCC14D" stroke-width="1.6440945" stroke-miterlimit="10" x1="33.2982674" y1="818.8901367" x2="50.7596817" y2="775.5484009"/>
</g>
<path fill="none" stroke="#FCC14D" stroke-width="1.4173229" stroke-miterlimit="10" d="M-167.6088257,423.0140991
	c0,0.3258362,0,0.6516724,0,0.9775085c0,18.9959106-15.4117737,34.4077148-34.3751068,34.4077148
	c-18.9959259,0-34.4076996-15.4118042-34.4076996-34.4077148s15.4117737-34.3751221,34.4076996-34.3751221v7.4289246
	c-14.9230347,0-26.978775,12.0557251-26.978775,26.9461975c0,14.8904419,12.0557404,26.9787598,26.978775,26.9787598
	c14.8904419,0,26.9461823-12.0883179,26.9461823-26.9787598c0-0.3258362,0-0.6516724,0-0.9775085H-167.6088257z"/>
<path fill="none" stroke="#FCC14D" stroke-width="1.4173229" stroke-miterlimit="10" d="M-167.6414032,423.0466919
	c0.0325775,0.3258362,0.0325775,0.6516724,0.0325775,0.9775085c0,18.9959106-15.4117737,34.3751221-34.4076996,34.3751221
	c-7.3311768,0-14.1736298-2.3134155-19.7779083-6.2559509l0,0l4.4638824-5.9301147l0,0
	c4.3661194,2.9976196,9.644577,4.7571106,15.3140259,4.7571106c14.9230347,0,26.978775-12.0557251,26.978775-26.946167
	c0-0.3258362,0-0.6516724-0.0325928-0.9775085H-167.6414032z"/>
<path fill="none" stroke="#FCC14D" stroke-width="1.4173229" stroke-miterlimit="10" d="M-195.4021606,385.348114
	c16.0308685-0.358429,29.9112396,11.6321411,31.6055603,27.85849c0.0977478,1.0752563,0.1629181,2.1179199,0.1629181,3.1279907
	h-6.7121124c0-0.7820129-0.0325775-1.5965881-0.1303406-2.4111633
	c-1.335907-12.7725525-12.2837982-22.2216187-24.9260254-21.8632202V385.348114z"/>
<line fill="none" stroke="#FCC14D" stroke-width="1.4173229" stroke-miterlimit="10" x1="-195.4347382" y1="392.2557068" x2="-187.1260681" y2="386.2929993"/>
<line fill="none" stroke="#FCC14D" stroke-width="1.4173229" stroke-miterlimit="10" x1="-187.5822296" y1="393.1354675" x2="-180.967865" y2="388.3783264"/>
<line fill="none" stroke="#FCC14D" stroke-width="1.4173229" stroke-miterlimit="10" x1="-181.7498627" y1="395.807251" x2="-175.9500885" y2="391.4411316"/>
<line fill="none" stroke="#FCC14D" stroke-width="1.4173229" stroke-miterlimit="10" x1="-177.2534027" y1="399.4239807" x2="-171.6491241" y2="395.1882019"/>
<line fill="none" stroke="#FCC14D" stroke-width="1.4173229" stroke-miterlimit="10" x1="-173.8647614" y1="403.8226929" x2="-168.2604828" y2="399.7824097"/>
<line fill="none" stroke="#FCC14D" stroke-width="1.4173229" stroke-miterlimit="10" x1="-171.7794495" y1="408.6775818" x2="-165.97966" y2="404.5395203"/>
<line fill="none" stroke="#FCC14D" stroke-width="1.4173229" stroke-miterlimit="10" x1="-170.4435425" y1="414.3470154" x2="-164.3179321" y2="409.9483032"/>
<path fill="#009648" stroke="#009648" stroke-width="0.7086614" stroke-miterlimit="10" d="M-201.7558594,403.4642639
	c5.6368713,0,10.7524109,2.3134155,14.4342957,6.0930481c3.7144623,3.7470398,5.995285,8.9603271,5.995285,14.6949463
	s-2.2808228,10.9479065-5.995285,14.6949768c-3.6818848,3.7796326-8.7974243,6.0930176-14.4342957,6.0930176
	c-5.6694489,0-10.7524109-2.313385-14.4668732-6.0930176c-3.7144623-3.7470703-5.995285-8.9603577-5.995285-14.6949768
	s2.2808228-10.9479065,5.995285-14.6949463C-212.5082703,405.7776794-207.4253082,403.4642639-201.7558594,403.4642639
	L-201.7558594,403.4642639z M-188.299057,410.5673828c-3.4538116-3.5189819-8.2109222-5.7020264-13.4568024-5.7020264
	c-5.2784576,0-10.0355835,2.1830444-13.4893799,5.7020264c-3.4537964,3.4863892-5.571701,8.3412781-5.571701,13.6848755
	c0,5.3436279,2.1179047,10.1985168,5.571701,13.7174683c3.4537964,3.4863892,8.2109222,5.6694641,13.4893799,5.6694641
	c5.2458801,0,10.0029907-2.183075,13.4568024-5.6694641c3.4537964-3.5189514,5.571701-8.3738403,5.571701-13.7174683
	C-182.727356,418.9086609-184.8452606,414.053772-188.299057,410.5673828L-188.299057,410.5673828z"/>
<path fill="#009648" stroke="#009648" stroke-width="0.7086614" stroke-miterlimit="10" d="M-186.1159973,436.8945007
	c-5.2458649-1.6943359-10.2962341-2.5414734-15.4443665-2.5740662c-5.1481171-0.0325928-10.3614044,0.8145752-15.900528,2.5414734
	l-0.3909912-1.3684998c5.6694489-1.7594604,11.0130768-2.6066284,16.2915192-2.5740356
	c5.3110504,0,10.5243225,0.912323,15.8679504,2.6066284L-186.1159973,436.8945007z"/>
<rect x="-221.5011902" y="423.5354309" fill="#009648" stroke="#009648" stroke-width="0.7086614" stroke-miterlimit="10" width="39.490654" height="1.4336562"/>
<path fill="#009648" stroke="#009648" stroke-width="0.7086614" stroke-miterlimit="10" d="M-203.8085938,404.7350159
	c-4.5942078,7.5592651-6.6143494,14.4994507-6.5166016,20.9508972s2.2808075,12.4141541,6.1256104,18.0184326l-1.1404114,0.8145752
	c-3.9751282-5.8323669-6.2885284-12.0557251-6.3862762-18.800415c-0.0977478-6.7120972,1.9875641-13.9455566,6.7121124-21.7329102
	L-203.8085938,404.7350159z"/>
<path fill="#009648" stroke="#009648" stroke-width="0.7086614" stroke-miterlimit="10" d="M-199.9312134,404.3114319
	c4.7571411,7.7873535,6.842453,14.9882202,6.7121124,21.7329102c-0.0977478,6.7446899-2.3785553,12.9680481-6.3536835,18.800415
	l-1.1404114-0.8145752c3.8447876-5.6042786,6.0278625-11.5669861,6.1256104-18.0184326s-2.2156525-13.8478088-6.7772675-21.407074
	L-199.9312134,404.3114319z"/>
<path fill="#009648" stroke="#009648" stroke-width="0.7086614" stroke-miterlimit="10" d="M-217.5722961,411.5122986
	c5.1173096,1.6943054,10.2664032,2.5088806,15.510849,2.4437256c5.2444458-0.0325928,10.584259-0.9449158,15.9876251-2.671814
	l0.3814087,1.335907c-5.5305023,1.7920532-10.9656525,2.7043762-16.3690338,2.736969
	c-5.371582,0.0651855-10.6795959-0.7494202-15.9240417-2.4763184L-217.5722961,411.5122986z"/>
</svg>
