<?xml version="1.0" encoding="utf-8"?>
<!-- Generator: Adobe Illustrator 17.1.0, SVG Export Plug-In . SVG Version: 6.00 Build 0)  -->
<!DOCTYPE svg PUBLIC "-//W3C//DTD SVG 1.1 Tiny//EN" "http://www.w3.org/Graphics/SVG/1.1/DTD/svg11-tiny.dtd">
<svg version="1.1" baseProfile="tiny" id="Слой_1"
	 xmlns="http://www.w3.org/2000/svg" xmlns:xlink="http://www.w3.org/1999/xlink" x="0px" y="0px" width="47.4902992px"
	 height="52.0261993px" viewBox="0 0 47.4902992 52.0261993" xml:space="preserve">
<g>
	<path fill="#FFFFFF" d="M30.2106972,4.5016708c0.7067528,0.2134814,1.409586,0.607986,2.0576706,1.1605916
		c0.0502625-0.0039864,0.1054459-0.0073748,0.1597633-0.0112286c-0.6235676-0.5108132-1.3107529-0.9437222-2.0400982-1.3051715
		C30.3271389,4.3964252,30.2681046,4.4483838,30.2106972,4.5016708z"/>
	<path fill="none" d="M30.2107315,4.0482645c-0.1673698,0.1551776-0.323246,0.3184276-0.4627094,0.4925084
		c-0.41786,0.5215101-0.713398,1.1133838-0.9267464,1.6938624c0.497757-0.3289924,0.8058529-0.6153278,0.8538246-0.8384767
		c0.1166744-0.5424733,0.4717121-1.0088029,0.9060154-1.3950686c-0.0657768-0.034085-0.1265736-0.0757117-0.1929817-0.1086009
		C30.3271713,3.9430189,30.268137,3.9949775,30.2107315,4.0482645z"/>
	<path fill="#818285" d="M27.3303356,0.0031106v7.4641075c5.469698,1.5638967,9.4896069,6.5979018,9.4896069,12.5632076
		c0,7.2094479-5.8654518,13.074791-13.0748997,13.074791s-13.0746832-5.8653431-13.0746832-13.074791
		c0-4.4300165,2.2194881-8.3458576,5.5996733-10.7119436l-3.9445572-6.122591
		c-5.3857121,3.6649613-8.9301996,9.843255-8.9301996,16.8344269c0,11.2209358,9.1288309,20.3500919,20.3497677,20.3500919
		c11.2207203,0,20.3499813-9.1291561,20.3499813-20.3500919C44.0950241,10.0333385,36.8464966,1.7025949,27.3303356,0.0031106z"/>
	<path fill="#D1D2D4" d="M27.3303757,0l-7.2998562,2.3288815l-0.0368862,49.8774109l7.3350945-1.9318542
		c0,0-0.0357094-39.4953461,0.0016479-39.8748703V0z"/>
	<path fill="#818285" d="M32.4281197,10.2629366L27.3303757,0v7.4551764c0,0,0.7326565,0.0832186,2.548872,1.0305014
		S32.4281197,10.2629366,32.4281197,10.2629366z"/>
</g>
</svg>
